<mxfile host="app.diagrams.net" modified="2023-12-06T13:27:49.456Z" agent="Mozilla/5.0 (Windows NT 10.0; Win64; x64) AppleWebKit/537.36 (KHTML, like Gecko) Chrome/119.0.0.0 Safari/537.36" etag="jOcr4bYoC84R_3cGHuYF" version="22.1.5" type="device">
  <diagram name="Страница — 1" id="mpXFiQAqxvtY26ylx8xH">
    <mxGraphModel dx="3148" dy="1755" grid="1" gridSize="10" guides="1" tooltips="1" connect="1" arrows="1" fold="1" page="1" pageScale="1" pageWidth="1600" pageHeight="900" math="0" shadow="0">
      <root>
        <mxCell id="0" />
        <mxCell id="1" parent="0" />
        <mxCell id="GOakswEduK-kkfegDvo--3" value="" style="rounded=0;whiteSpace=wrap;html=1;" vertex="1" parent="1">
          <mxGeometry width="1600" height="70" as="geometry" />
        </mxCell>
        <mxCell id="GOakswEduK-kkfegDvo--4" value="" style="rounded=0;whiteSpace=wrap;html=1;direction=south;" vertex="1" parent="1">
          <mxGeometry y="70" width="280" height="760" as="geometry" />
        </mxCell>
        <mxCell id="GOakswEduK-kkfegDvo--5" value="" style="rounded=0;whiteSpace=wrap;html=1;" vertex="1" parent="1">
          <mxGeometry y="830" width="1600" height="70" as="geometry" />
        </mxCell>
        <mxCell id="GOakswEduK-kkfegDvo--7" value="LEFT&lt;br&gt;SIDEBAR&lt;br&gt;" style="text;strokeColor=none;fillColor=none;html=1;fontSize=24;fontStyle=1;verticalAlign=middle;align=center;" vertex="1" parent="1">
          <mxGeometry x="45" y="320" width="190" height="140" as="geometry" />
        </mxCell>
        <mxCell id="GOakswEduK-kkfegDvo--8" value="FOOTER" style="text;strokeColor=none;fillColor=none;html=1;fontSize=24;fontStyle=1;verticalAlign=middle;align=center;" vertex="1" parent="1">
          <mxGeometry x="710" y="850" width="100" height="40" as="geometry" />
        </mxCell>
        <mxCell id="GOakswEduK-kkfegDvo--10" value="Logo" style="text;strokeColor=none;fillColor=none;html=1;fontSize=24;fontStyle=1;verticalAlign=middle;align=center;" vertex="1" parent="1">
          <mxGeometry x="20" y="15" width="100" height="40" as="geometry" />
        </mxCell>
        <mxCell id="GOakswEduK-kkfegDvo--11" value="Contacts" style="text;html=1;strokeColor=none;fillColor=none;align=center;verticalAlign=middle;whiteSpace=wrap;rounded=0;fontStyle=0;fontSize=18;" vertex="1" parent="1">
          <mxGeometry x="1360" y="22.5" width="60" height="25" as="geometry" />
        </mxCell>
        <mxCell id="GOakswEduK-kkfegDvo--15" value="EXIT" style="text;html=1;strokeColor=none;fillColor=none;align=center;verticalAlign=middle;whiteSpace=wrap;rounded=0;fontSize=17;" vertex="1" parent="1">
          <mxGeometry x="1510" y="22.5" width="60" height="30" as="geometry" />
        </mxCell>
        <mxCell id="GOakswEduK-kkfegDvo--16" value="" style="rounded=0;whiteSpace=wrap;html=1;" vertex="1" parent="1">
          <mxGeometry x="280" y="70" width="1320" height="760" as="geometry" />
        </mxCell>
        <mxCell id="GOakswEduK-kkfegDvo--17" value="Content" style="text;strokeColor=none;fillColor=none;html=1;fontSize=24;fontStyle=1;verticalAlign=middle;align=center;" vertex="1" parent="1">
          <mxGeometry x="910" y="360" width="100" height="40" as="geometry" />
        </mxCell>
        <mxCell id="GOakswEduK-kkfegDvo--19" value="" style="rounded=1;whiteSpace=wrap;html=1;direction=south;" vertex="1" parent="1">
          <mxGeometry x="525" y="985" width="550" height="730" as="geometry" />
        </mxCell>
        <mxCell id="GOakswEduK-kkfegDvo--20" value="Login" style="text;strokeColor=none;fillColor=none;html=1;fontSize=35;fontStyle=1;verticalAlign=middle;align=center;" vertex="1" parent="1">
          <mxGeometry x="750" y="1040" width="100" height="40" as="geometry" />
        </mxCell>
        <mxCell id="GOakswEduK-kkfegDvo--21" value="" style="line;strokeWidth=2;html=1;" vertex="1" parent="1">
          <mxGeometry x="720" y="1230" width="160" height="10" as="geometry" />
        </mxCell>
        <mxCell id="GOakswEduK-kkfegDvo--23" value="" style="line;strokeWidth=2;html=1;" vertex="1" parent="1">
          <mxGeometry x="720" y="1380" width="160" height="10" as="geometry" />
        </mxCell>
        <mxCell id="GOakswEduK-kkfegDvo--24" value="Name" style="text;html=1;strokeColor=none;fillColor=none;align=center;verticalAlign=middle;whiteSpace=wrap;rounded=0;fontStyle=4;fontSize=15;textOpacity=40;" vertex="1" parent="1">
          <mxGeometry x="710" y="1210" width="60" height="30" as="geometry" />
        </mxCell>
        <mxCell id="GOakswEduK-kkfegDvo--25" value="Password" style="text;html=1;strokeColor=none;fillColor=none;align=center;verticalAlign=middle;whiteSpace=wrap;rounded=0;fontStyle=4;textOpacity=60;fontSize=14;" vertex="1" parent="1">
          <mxGeometry x="720" y="1360" width="60" height="30" as="geometry" />
        </mxCell>
        <mxCell id="GOakswEduK-kkfegDvo--26" value="" style="rounded=0;whiteSpace=wrap;html=1;" vertex="1" parent="1">
          <mxGeometry x="740" y="1510" width="120" height="60" as="geometry" />
        </mxCell>
        <mxCell id="GOakswEduK-kkfegDvo--27" value="Login" style="text;strokeColor=none;fillColor=none;html=1;fontSize=24;fontStyle=1;verticalAlign=middle;align=center;" vertex="1" parent="1">
          <mxGeometry x="750" y="1520" width="100" height="40" as="geometry" />
        </mxCell>
        <mxCell id="GOakswEduK-kkfegDvo--28" value="" style="rounded=1;whiteSpace=wrap;html=1;direction=south;" vertex="1" parent="1">
          <mxGeometry x="520" y="1970" width="550" height="820" as="geometry" />
        </mxCell>
        <mxCell id="GOakswEduK-kkfegDvo--29" value="REGISTRATION" style="text;strokeColor=none;fillColor=none;html=1;fontSize=28;fontStyle=1;verticalAlign=middle;align=center;" vertex="1" parent="1">
          <mxGeometry x="750" y="2050" width="100" height="40" as="geometry" />
        </mxCell>
        <mxCell id="GOakswEduK-kkfegDvo--30" value="" style="line;strokeWidth=2;html=1;" vertex="1" parent="1">
          <mxGeometry x="715" y="2220" width="160" height="10" as="geometry" />
        </mxCell>
        <mxCell id="GOakswEduK-kkfegDvo--31" value="" style="line;strokeWidth=2;html=1;" vertex="1" parent="1">
          <mxGeometry x="715" y="2350" width="160" height="10" as="geometry" />
        </mxCell>
        <mxCell id="GOakswEduK-kkfegDvo--32" value="" style="line;strokeWidth=2;html=1;" vertex="1" parent="1">
          <mxGeometry x="715" y="2480" width="160" height="10" as="geometry" />
        </mxCell>
        <mxCell id="GOakswEduK-kkfegDvo--33" value="" style="line;strokeWidth=2;html=1;" vertex="1" parent="1">
          <mxGeometry x="715" y="2590" width="160" height="10" as="geometry" />
        </mxCell>
        <mxCell id="GOakswEduK-kkfegDvo--34" value="Name" style="text;html=1;strokeColor=none;fillColor=none;align=center;verticalAlign=middle;whiteSpace=wrap;rounded=0;fontStyle=4;fontSize=16;textOpacity=60;" vertex="1" parent="1">
          <mxGeometry x="715" y="2190" width="60" height="30" as="geometry" />
        </mxCell>
        <mxCell id="GOakswEduK-kkfegDvo--35" value="e-mail" style="text;html=1;strokeColor=none;fillColor=none;align=center;verticalAlign=middle;whiteSpace=wrap;rounded=0;fontStyle=4;fontSize=15;textOpacity=60;" vertex="1" parent="1">
          <mxGeometry x="720" y="2320" width="60" height="30" as="geometry" />
        </mxCell>
        <mxCell id="GOakswEduK-kkfegDvo--36" value="Login" style="text;html=1;strokeColor=none;fillColor=none;align=center;verticalAlign=middle;whiteSpace=wrap;rounded=0;fontStyle=4;fontSize=16;textOpacity=60;" vertex="1" parent="1">
          <mxGeometry x="720" y="2460" width="60" height="30" as="geometry" />
        </mxCell>
        <mxCell id="GOakswEduK-kkfegDvo--37" value="Password" style="text;html=1;strokeColor=none;fillColor=none;align=center;verticalAlign=middle;whiteSpace=wrap;rounded=0;fontStyle=4;fontSize=15;textOpacity=60;" vertex="1" parent="1">
          <mxGeometry x="720" y="2560" width="60" height="30" as="geometry" />
        </mxCell>
        <mxCell id="GOakswEduK-kkfegDvo--38" value="" style="rounded=0;whiteSpace=wrap;html=1;" vertex="1" parent="1">
          <mxGeometry x="735" y="2680" width="120" height="60" as="geometry" />
        </mxCell>
        <mxCell id="GOakswEduK-kkfegDvo--39" value="Sign up" style="text;strokeColor=none;fillColor=none;html=1;fontSize=24;fontStyle=1;verticalAlign=middle;align=center;" vertex="1" parent="1">
          <mxGeometry x="745" y="2690" width="100" height="40" as="geometry" />
        </mxCell>
      </root>
    </mxGraphModel>
  </diagram>
</mxfile>
